HIERARCHY
ROOT Hips
{
	OFFSET 0.00000 0.00000 0.00000
	CHANNELS 6 Xposition Yposition Zposition Zrotation Yrotation Xrotation 
	JOINT LHipJoint
	{
		OFFSET 0 0 0
		CHANNELS 3 Zrotation Yrotation Xrotation
		JOINT LeftUpLeg
		{
			OFFSET 1.37959 -1.78713 0.86582
			CHANNELS 3 Zrotation Yrotation Xrotation
			JOINT LeftLeg
			{
				OFFSET 2.54611 -6.99539 0.00000
				CHANNELS 3 Zrotation Yrotation Xrotation
				JOINT LeftFoot
				{
					OFFSET 2.59951 -7.14211 0.00000
					CHANNELS 3 Zrotation Yrotation Xrotation
					JOINT LeftToeBase
					{
						OFFSET 0.18493 -0.50810 1.96120
						CHANNELS 3 Zrotation Yrotation Xrotation
						End Site
						{
							OFFSET 0.00000 -0.00000 1.02054
						}
					}
				}
			}
		}
	}
	JOINT RHipJoint
	{
		OFFSET 0 0 0
		CHANNELS 3 Zrotation Yrotation Xrotation
		JOINT RightUpLeg
		{
			OFFSET -1.33564 -1.78713 0.86582
			CHANNELS 3 Zrotation Yrotation Xrotation
			JOINT RightLeg
			{
				OFFSET -2.52705 -6.94302 0.00000
				CHANNELS 3 Zrotation Yrotation Xrotation
				JOINT RightFoot
				{
					OFFSET -2.55964 -7.03257 0.00000
					CHANNELS 3 Zrotation Yrotation Xrotation
					JOINT RightToeBase
					{
						OFFSET -0.25804 -0.70896 2.12109
						CHANNELS 3 Zrotation Yrotation Xrotation
						End Site
						{
							OFFSET -0.00000 -0.00000 1.11821
						}
					}
				}
			}
		}
	}
	JOINT LowerBack
	{
		OFFSET 0 0 0
		CHANNELS 3 Zrotation Yrotation Xrotation
		JOINT Spine
		{
			OFFSET -0.02031 2.24248 -0.18900
			CHANNELS 3 Zrotation Yrotation Xrotation
			JOINT Spine1
			{
				OFFSET 0.08342 2.24689 -0.03799
				CHANNELS 3 Zrotation Yrotation Xrotation
				JOINT Neck
				{
					OFFSET 0 0 0
					CHANNELS 3 Zrotation Yrotation Xrotation
					JOINT Neck1
					{
						OFFSET -0.11607 1.55844 0.24628
						CHANNELS 3 Zrotation Yrotation Xrotation
						JOINT Head
						{
							OFFSET 0.06877 1.60174 -0.17013
							CHANNELS 3 Zrotation Yrotation Xrotation
							End Site
							{
								OFFSET 0.03358 1.61266 -0.08543
							}
						}
					}
				}
				JOINT LeftShoulder
				{
					OFFSET 0 0 0
					CHANNELS 3 Zrotation Yrotation Xrotation
					JOINT LeftArm
					{
						OFFSET 3.47537 0.55866 -0.72348
						CHANNELS 3 Zrotation Yrotation Xrotation
						JOINT LeftForeArm
						{
							OFFSET 5.38154 -0.00000 0.00000
							CHANNELS 3 Zrotation Yrotation Xrotation
							JOINT LeftHand
							{
								OFFSET 3.33312 -0.00000 0.00000
								CHANNELS 3 Zrotation Yrotation Xrotation
								JOINT LeftFingerBase
								{
									OFFSET 0 0 0
									CHANNELS 3 Zrotation Yrotation Xrotation
									JOINT LeftHandIndex1
									{
										OFFSET 0.71079 -0.00000 0.00000
										CHANNELS 3 Zrotation Yrotation Xrotation
										End Site
										{
											OFFSET 0.57306 -0.00000 0.00000
										}
									}
								}
								JOINT LThumb
								{
									OFFSET 0 0 0
									CHANNELS 3 Zrotation Yrotation Xrotation
									End Site
									{
										OFFSET 0.58181 -0.00000 0.58181
									}
								}
							}
						}
					}
				}
				JOINT RightShoulder
				{
					OFFSET 0 0 0
					CHANNELS 3 Zrotation Yrotation Xrotation
					JOINT RightArm
					{
						OFFSET -3.27844 0.90739 -0.35708
						CHANNELS 3 Zrotation Yrotation Xrotation
						JOINT RightForeArm
						{
							OFFSET -5.16954 -0.00000 0.00000
							CHANNELS 3 Zrotation Yrotation Xrotation
							JOINT RightHand
							{
								OFFSET -3.38287 -0.00000 0.00000
								CHANNELS 3 Zrotation Yrotation Xrotation
								JOINT RightFingerBase
								{
									OFFSET 0 0 0
									CHANNELS 3 Zrotation Yrotation Xrotation
									JOINT RightHandIndex1
									{
										OFFSET -0.81797 -0.00000 0.00000
										CHANNELS 3 Zrotation Yrotation Xrotation
										End Site
										{
											OFFSET -0.65947 -0.00000 0.00000
										}
									}
								}
								JOINT RThumb
								{
									OFFSET 0 0 0
									CHANNELS 3 Zrotation Yrotation Xrotation
									End Site
									{
										OFFSET -0.66953 -0.00000 0.66953
									}
								}
							}
						}
					}
				}
			}
		}
	}
}
MOTION
Frames: 11
Frame Time: 0.0298507
0.00 0.00 0.00 177.4440 -228.7600 -186.3120 0.0000 0.0000 0.0000 -2.8201 3.5191 -5.8003 9.2716 16.9794 57.0248 -1.0540 -18.1182 3.2588 2.3582 -9.5754 -27.6124 0.0000 0.0000 0.0000 13.7007 6.5935 -31.1835 -7.3185 -15.5943 50.0689 -0.4257 -1.1956 -12.8165 -0.0155 -0.8030 2.2069 -1.3897 -1.7834 13.6860 2.6284 -2.3488 2.4900 3.9643 -1.0956 -4.8695 -14.7220 -7.7512 -15.2706 10.2638 -8.9677 13.0639 4.7302 -4.1681 7.6741 0.0000 -0.0000 0.0000 -88.7061 5.5305 -6.8470 16.4423 -26.1167 -3.8386 -0.0000 -0.0000 13.4623 -0.1416 38.4643 -0.0881 -7.1250 0.0000 -0.0000 -42.9132 63.2370 -20.9047 0.0000 -0.0000 0.0000 83.2362 -3.7958 -0.1447 -14.9352 24.0558 -3.1995 0.0000 -0.0000 -9.1216 -23.5688 20.2157 -8.5725 7.1250 -0.0000 -0.0000 3.1214 -8.1185 2.6534
0.00 0.00 0.00 181.1790 -229.7300 -182.4320 0.0000 0.0000 0.0000 -14.1315 -3.6946 4.9884 2.5571 9.9410 28.7859 1.4002 -18.7309 -23.3062 1.2855 -7.1845 -20.2630 0.0000 0.0000 0.0000 1.7191 6.5968 -21.5701 -2.6296 -10.0699 29.2033 0.2869 -9.4467 -3.6520 -0.0839 1.8680 -5.1410 -2.8149 -1.3914 10.6761 1.7453 -2.0490 2.0720 3.6828 -0.9653 -3.6548 -16.2306 -10.8190 -8.5361 13.7560 -14.3783 11.4286 5.6023 -6.7967 7.0888 0.0000 0.0000 0.0000 -86.3881 -7.4998 5.3854 23.6451 -34.7868 -7.5031 -0.0000 -0.0000 6.0537 3.9781 35.8319 2.3313 -7.1250 0.0000 -0.0000 -35.5869 62.2917 -16.0313 0.0000 0.0000 0.0000 81.8424 -3.4281 -0.5797 -16.0896 25.6420 -3.6847 0.0000 -0.0000 -12.2318 -19.2992 21.0747 -7.1768 7.1250 -0.0000 -0.0000 5.9192 -7.8668 5.0812
0.00 0.00 0.00 178.2960 -208.0930 -184.6670 0.0000 0.0000 0.0000 -10.8797 -2.9678 -1.2669 3.7260 11.7865 34.9809 1.1945 -17.5642 -21.5945 2.2860 -9.4380 -27.1754 0.0000 0.0000 0.0000 12.7885 4.5917 -24.6441 -4.1008 -12.2933 36.7775 -0.1864 -0.3020 -8.2702 -0.0000 0.0223 -0.0612 -3.6762 -2.4837 11.7228 1.7866 -3.6580 1.2457 4.5158 -1.7121 -4.9084 -11.3877 -7.2780 -12.7269 9.6601 -9.3869 14.9346 4.0109 -4.3193 7.6985 -0.0000 -0.0000 0.0000 -68.6029 8.1233 3.7890 85.2382 -59.9141 -55.8774 -0.0000 0.0000 -27.9920 -10.3108 40.0477 -6.6764 -7.1250 0.0000 -0.0000 -54.3682 61.6270 -26.0781 -0.0000 -0.0000 0.0000 69.0578 -8.7965 1.7056 -74.0161 59.0123 -46.2035 0.0000 -0.0000 -44.3299 -0.2658 13.8987 -0.0639 7.1250 -0.0000 -0.0000 18.4006 -16.4944 13.1200
0.00 0.00 0.00 177.6900 -207.0700 -185.0120 0.0000 0.0000 0.0000 -10.5892 -0.9371 -1.3673 3.5664 11.5600 34.1926 1.5616 -16.3758 -23.5862 2.4469 -9.7407 -28.1411 0.0000 0.0000 0.0000 13.0889 5.2253 -25.2970 -4.2400 -12.4731 37.4269 -0.1981 0.0582 -8.3864 -0.0000 0.0271 -0.0744 -3.1610 -2.3759 11.6755 1.8692 -3.4412 1.3640 4.2730 -1.6189 -4.8049 -11.4270 -7.1778 -12.7201 9.5320 -9.2312 15.1319 3.9953 -4.2579 7.7399 0.0000 -0.0000 0.0000 -68.6659 8.7443 7.5543 104.8920 -59.1452 -72.8598 -0.0000 0.0000 -32.6961 -16.1446 36.5093 -9.7719 -7.1250 0.0000 -0.0000 -54.8591 57.9270 -21.4667 0.0000 -0.0000 0.0000 69.1952 -11.6320 6.4220 -95.7277 59.8757 -64.9582 0.0000 -0.0000 -49.6633 8.3642 15.4749 2.2465 7.1250 -0.0000 -0.0000 23.6976 -15.0942 18.3794
0.00 0.00 0.00 180.1230 -206.6290 -184.0710 0.0000 0.0000 0.0000 -13.7461 0.4647 -1.1298 3.3210 11.1975 32.9488 1.7760 -14.6630 -24.5303 1.9031 -8.6613 -24.7414 0.0000 0.0000 0.0000 10.1948 4.8933 -26.3608 -4.4639 -12.7534 38.4524 -0.1558 0.8710 -7.1975 -0.0513 1.4623 -4.0218 -4.5427 -2.3301 11.7049 0.9132 -3.6101 1.3623 4.0714 -1.6843 -4.7844 -11.6699 -6.9131 -12.3679 9.6859 -8.9012 15.3837 4.1395 -4.1116 7.7417 0.0000 -0.0000 0.0000 -67.8773 9.9347 12.9716 121.5968 -55.8692 -86.9842 -0.0000 0.0000 -37.9244 -21.5502 32.7939 -12.0735 -7.1250 0.0000 -0.0000 -55.2461 54.3283 -16.4181 0.0000 -0.0000 0.0000 69.8883 -13.7352 11.5390 -115.6621 57.3592 -82.0270 0.0000 -0.0000 -53.2936 16.8079 16.9711 5.0388 7.1250 -0.0000 -0.0000 28.3879 -13.4216 24.2882
0.00 0.00 0.00 179.7290 -205.9450 -184.4420 0.0000 0.0000 0.0000 -14.1450 0.1643 -0.6840 3.2421 11.0770 32.5399 1.9641 -13.4524 -25.4891 2.2011 -9.2731 -26.6533 0.0000 0.0000 0.0000 10.1415 5.1097 -26.3214 -4.3652 -12.6311 38.0027 -0.0806 -0.2491 -5.4597 -0.7864 -5.6611 15.8043 -4.5391 -2.6799 11.7041 1.2268 -4.0615 1.2389 4.4686 -1.9015 -4.8456 -12.5270 -6.5881 -11.6788 9.4665 -8.3863 16.3907 4.2939 -3.9563 7.9204 0.0000 0.0000 0.0000 -67.8933 9.3553 21.7621 137.8113 -49.3144 -99.9165 -0.0000 0.0000 -42.8017 -24.7808 28.7829 -12.5322 -7.1250 0.0000 -0.0000 -53.8902 50.9955 -10.6178 0.0000 0.0000 0.0000 68.7332 -15.4967 22.3911 -135.9087 50.3155 -98.4628 0.0000 -0.0000 -53.1381 25.5606 20.2024 9.3787 7.1250 -0.0000 -0.0000 32.2756 -9.5388 32.3019
0.00 0.00 0.00 176.9140 -207.9800 -189.5000 0.0000 0.0000 0.0000 -11.3362 -3.8396 3.2733 2.7065 10.2040 29.6399 1.6965 -11.3254 -23.5031 1.5679 -7.9011 -22.4141 0.0000 0.0000 0.0000 14.7544 1.7468 -17.6186 -3.2684 -11.1174 32.6767 -0.1711 0.7954 -7.5712 -0.1036 -2.0758 5.7151 -4.2219 -1.8701 4.9204 2.3502 -2.6600 1.2505 4.9518 -1.3265 -1.1619 -13.6059 -4.8099 -10.9934 9.1464 -6.1075 24.1783 4.8170 -3.0540 10.2188 -0.0000 -0.0000 0.0000 -94.4660 -72.4985 71.8439 24.0991 -35.2689 -7.7637 -0.0000 -0.0000 1.4487 -6.7722 37.6915 -4.1527 -7.1250 0.0000 -0.0000 -48.0789 60.9682 -21.4569 -0.0000 -0.0000 0.0000 49.1481 66.3760 22.1581 -21.5874 32.5076 -6.3627 0.0000 -0.0000 -10.0556 -8.6290 8.7620 -1.3243 7.1250 -0.0000 -0.0000 13.1104 -21.2067 7.6797
0.00 0.00 0.00 177.0390 -209.5040 -188.5590 0.0000 0.0000 0.0000 -10.8311 -4.7495 2.3957 2.6679 10.1370 29.4216 1.6130 -11.2874 -22.9335 1.2189 -7.0031 -19.7244 0.0000 0.0000 0.0000 15.0712 0.6528 -18.4456 -3.2327 -11.0626 32.4913 -0.1718 0.7326 -7.6017 -0.0260 -1.0413 2.8624 -5.0896 -2.4752 5.2404 2.5016 -3.5293 0.7745 5.6756 -1.7336 -1.6685 -12.3716 -5.1609 -13.4792 8.3100 -6.3964 24.7416 4.2387 -3.1155 10.8760 0.0000 -0.0000 0.0000 -126.9794 -77.0871 96.6934 10.4595 -17.4551 -1.6101 -0.0000 -0.0000 18.5544 -9.1221 38.9518 -5.7642 -7.1250 0.0000 -0.0000 -51.8272 61.2270 -23.9816 0.0000 -0.0000 0.0000 50.9072 76.2302 10.1396 -9.1795 15.4460 -1.2475 0.0000 0.0000 5.4856 -10.0968 9.2371 -1.6373 7.1250 -0.0000 -0.0000 12.0382 -20.6875 7.1666
0.00 0.00 0.00 176.5890 -210.0180 -187.0380 0.0000 0.0000 0.0000 -8.6862 0.1274 -1.2801 5.4500 13.8734 42.7325 -0.6582 -23.1494 -11.1450 3.1196 -10.8862 -31.8972 0.0000 0.0000 0.0000 16.6884 1.9321 -18.8961 -2.7274 -10.2401 29.7577 -0.0950 -2.2144 -7.0778 -0.2731 -3.3614 9.2865 -5.1837 -3.1565 4.8748 3.2438 -4.4113 1.2372 6.5034 -2.2198 -0.7980 -13.4697 -6.6643 -14.5217 7.5490 -7.7186 20.2909 3.8442 -3.8414 9.6553 0.0000 -0.0000 0.0000 -118.0446 -77.0345 94.8825 22.3543 -33.3751 -6.7797 -0.0000 -0.0000 13.6101 4.3399 34.9188 2.4875 -7.1250 0.0000 -0.0000 -34.1958 61.6439 -14.7976 0.0000 -0.0000 0.0000 53.5351 67.0303 20.8410 -30.2830 41.1347 -11.5953 0.0000 -0.0000 -5.7780 -16.5547 8.3924 -2.4842 7.1250 -0.0000 -0.0000 7.4511 -21.2601 4.2778
0.00 0.00 0.00 177.2260 -208.7260 -186.9690 0.0000 0.0000 0.0000 -9.9855 1.2437 0.2861 5.6628 14.0934 43.6128 -2.2862 -26.0010 5.1402 1.7022 -8.2161 -23.3724 0.0000 0.0000 0.0000 16.1092 2.6432 -19.8348 -3.0468 -10.7704 31.5095 -0.1097 -1.7304 -7.1438 -0.1311 -2.3337 6.4289 -4.7882 -3.0731 5.5758 2.9178 -4.3074 1.5317 5.9691 -2.1667 -0.9554 -13.5587 -6.7043 -15.6117 7.8875 -7.6755 20.1402 3.9615 -3.7669 9.8167 -0.0000 0.0000 0.0000 -103.1996 -74.8582 77.2959 31.4398 -42.0960 -12.3637 -0.0000 -0.0000 16.5683 13.2900 32.3139 7.1964 -7.1250 0.0000 -0.0000 -22.3638 61.6068 -9.2963 -0.0000 0.0000 0.0000 59.0877 62.8096 23.4100 -46.6353 51.5449 -23.5125 0.0000 -0.0000 -0.8150 -23.9090 12.0511 -5.2882 7.1250 -0.0000 -0.0000 2.2932 -16.8418 1.5317
0.00 0.00 0.00 180.5870 -200.4950 -180.9450 0.0000 0.0000 0.0000 -18.8636 2.0888 10.2415 2.2724 9.4117 27.0919 -0.2403 -18.5930 -10.8122 1.6167 -8.0173 -22.7667 0.0000 0.0000 0.0000 12.2033 8.1632 -28.0918 -0.9714 -6.2747 17.5834 0.2535 -9.0285 -5.0277 -0.0007 -0.1701 0.4674 -7.5921 -3.1833 3.2249 3.0909 -4.4494 1.7883 7.5768 -2.3409 0.8840 -12.0643 -6.7045 -15.3670 7.2563 -7.7248 15.6778 3.4630 -3.7188 8.1512 0.0000 -0.0000 0.0000 -122.8053 -77.7932 90.3512 17.9316 -28.0695 -4.5170 -0.0000 -0.0000 12.1543 6.4196 37.1718 3.8891 -7.1250 0.0000 -0.0000 -34.7508 64.0100 -16.9979 0.0000 -0.0000 0.0000 54.4476 77.2525 17.7928 -18.4925 28.7832 -4.7840 0.0000 -0.0000 -0.2250 -19.0147 10.0128 -3.4289 7.1250 -0.0000 -0.0000 5.6770 -19.4291 3.4823
